<svg xmlns="http://www.w3.org/2000/svg" x="0px" y="0px"
width="24" height="24"
viewBox="0 0 172 172"
style=" fill:#000000;"><g fill="none" fill-rule="nonzero" stroke="none" stroke-width="1" stroke-linecap="butt" stroke-linejoin="miter" stroke-miterlimit="10" stroke-dasharray="" stroke-dashoffset="0" font-family="none" font-weight="none" font-size="none" text-anchor="none" style="mix-blend-mode: normal"><path d="M0,172v-172h172v172z" fill="#000000"></path><g fill="#ffffff"><path d="M28.66667,21.5c-7.88333,0 -14.26335,6.45 -14.26335,14.33333l-0.05599,85.986c0,7.91917 6.41417,14.34733 14.33333,14.34733h14.31934v28.66667l28.66667,-28.66667h71.66667c7.88333,0 14.33333,-6.45 14.33333,-14.33333v-86c0,-7.88333 -6.45,-14.33333 -14.33333,-14.33333zM28.66667,35.83333h114.66667v86h-100.33333h-14.31934zM50.16667,57.33333v43h50.16667v-15.10319l21.5,15.10319v-43l-21.5,15.10319v-15.10319z"></path></g></g></svg>